<?plantuml 1.2026.2?><svg xmlns="http://www.w3.org/2000/svg" xmlns:xlink="http://www.w3.org/1999/xlink" contentStyleType="text/css" data-diagram-type="DESCRIPTION" height="320px" preserveAspectRatio="none" style="width:1892px;height:320px;background:#FFFFFF;" version="1.1" viewBox="0 0 1892 320" width="1892px" zoomAndPan="magnify"><defs/><g><!--cluster EO Layer--><g class="cluster" data-qualified-name="EO Layer" data-source-line="26" id="ent0002"><rect fill="#EAF4FB" height="113" rx="6" ry="6" style="stroke:#7A7A7A;stroke-width:1;" width="532.24" x="12" y="131"/><text fill="#222222" font-family="'Times New Roman'" font-size="13" font-weight="bold" lengthAdjust="spacing" textLength="55.2437" x="250.4982" y="145.1367">EO Layer</text></g><!--cluster MAS Layer--><g class="cluster" data-qualified-name="MAS Layer" data-source-line="38" id="ent0009"><rect fill="#EEF8EE" height="294" rx="6" ry="6" style="stroke:#7A7A7A;stroke-width:1;" width="354.2" x="815.09" y="12"/><text fill="#222222" font-family="'Times New Roman'" font-size="13" font-weight="bold" lengthAdjust="spacing" textLength="65.3491" x="959.5154" y="26.1367">MAS Layer</text></g><!--cluster Hazard Specialists--><g class="cluster" data-qualified-name="MAS Layer.Hazard Specialists" data-source-line="43" id="ent0011"><rect fill="#F8FCF8" height="184" rx="6" ry="6" style="stroke:#7A7A7A;stroke-width:1;" width="155.6" x="989.69" y="53"/><text fill="#222222" font-family="'Times New Roman'" font-size="13" font-weight="bold" lengthAdjust="spacing" textLength="102.9146" x="1016.0327" y="67.1367">Hazard Specialists</text></g><!--cluster NLP Layer--><g class="cluster" data-qualified-name="NLP Layer" data-source-line="58" id="ent0020"><rect fill="#FFF8EC" height="99" rx="6" ry="6" style="stroke:#7A7A7A;stroke-width:1;" width="693.16" x="1193.29" y="215"/><text fill="#222222" font-family="'Times New Roman'" font-size="13" font-weight="bold" lengthAdjust="spacing" textLength="62.4609" x="1508.6395" y="229.1367">NLP Layer</text></g><!--entity SDI--><g class="entity" data-qualified-name="EO Layer.SDI" data-source-line="28" id="ent0003"><rect fill="#FFFFFF" height="49.8975" rx="6" ry="6" style="stroke:#4F4F4F;stroke-width:1;" width="121.0801" x="28" y="171.05"/><text fill="#222222" font-family="'Times New Roman'" font-size="13" lengthAdjust="spacing" textLength="101.0801" x="38" y="193.1867">Satellite Data Input</text><text fill="#222222" font-family="'Times New Roman'" font-size="13" lengthAdjust="spacing" textLength="95.6719" x="38" y="208.1354">(Sentinel-2 bands)</text></g><!--entity IE--><g class="entity" data-qualified-name="EO Layer.IE" data-source-line="29" id="ent0004"><rect fill="#FFFFFF" height="64.8462" rx="6" ry="6" style="stroke:#4F4F4F;stroke-width:1;" width="143.1191" x="209.08" y="163.58"/><text fill="#222222" font-family="'Times New Roman'" font-size="13" lengthAdjust="spacing" textLength="114.0737" x="219.08" y="185.7167">EO Change Detection</text><text fill="#222222" font-family="'Times New Roman'" font-size="13" lengthAdjust="spacing" textLength="123.1191" x="219.08" y="200.6654">Wildfire: NDVI, dNBR</text><text fill="#222222" font-family="'Times New Roman'" font-size="13" lengthAdjust="spacing" textLength="72.5791" x="219.08" y="215.6142">Flood: NDWI</text></g><!--entity CSV--><g class="entity" data-qualified-name="EO Layer.CSV" data-source-line="30" id="ent0005"><rect fill="#FFFFFF" height="34.9487" rx="6" ry="6" style="stroke:#4F4F4F;stroke-width:1;" width="116.04" x="412.2" y="178.53"/><text fill="#222222" font-family="'Times New Roman'" font-size="13" lengthAdjust="spacing" textLength="96.04" x="422.2" y="200.6667">EO Indicator CSV</text></g><!--entity CA--><g class="entity" data-qualified-name="MAS Layer.CA" data-source-line="41" id="ent0010"><rect fill="#FFFFFF" height="34.9487" rx="6" ry="6" style="stroke:#4F4F4F;stroke-width:1;" width="114.5928" x="831.09" y="178.53"/><text fill="#222222" font-family="'Times New Roman'" font-size="13" lengthAdjust="spacing" textLength="94.5928" x="841.09" y="200.6667">CoordinatorAgent</text></g><!--entity EA--><g class="entity" data-qualified-name="MAS Layer.EA" data-source-line="49" id="ent0014"><rect fill="#FFFFFF" height="34.9487" rx="6" ry="6" style="stroke:#4F4F4F;stroke-width:1;" width="114.5864" x="1010.19" y="255.53"/><text fill="#222222" font-family="'Times New Roman'" font-size="13" lengthAdjust="spacing" textLength="94.5864" x="1020.19" y="277.6667">ExplanationAgent</text></g><!--entity FA--><g class="entity" data-qualified-name="MAS Layer.Hazard Specialists.FA" data-source-line="45" id="ent0012"><rect fill="#FFFFFF" height="49.8975" rx="6" ry="6" style="stroke:#4F4F4F;stroke-width:1;" width="123.6001" x="1005.69" y="171.05"/><text fill="#222222" font-family="'Times New Roman'" font-size="13" lengthAdjust="spacing" textLength="64.27" x="1015.69" y="193.1867">ForestAgent</text><text fill="#222222" font-family="'Times New Roman'" font-size="13" lengthAdjust="spacing" textLength="103.6001" x="1015.69" y="208.1354">(wildfire reasoning)</text></g><!--entity WA--><g class="entity" data-qualified-name="MAS Layer.Hazard Specialists.WA" data-source-line="46" id="ent0013"><rect fill="#FFFFFF" height="49.8975" rx="6" ry="6" style="stroke:#4F4F4F;stroke-width:1;" width="109.8892" x="1012.54" y="86.05"/><text fill="#222222" font-family="'Times New Roman'" font-size="13" lengthAdjust="spacing" textLength="63.521" x="1022.54" y="108.1867">WaterAgent</text><text fill="#222222" font-family="'Times New Roman'" font-size="13" lengthAdjust="spacing" textLength="89.8892" x="1022.54" y="123.1354">(flood reasoning)</text></g><!--entity JT--><g class="entity" data-qualified-name="NLP Layer.JT" data-source-line="60" id="ent0021"><rect fill="#FFFFFF" height="34.9487" rx="6" ry="6" style="stroke:#4F4F4F;stroke-width:1;" width="119.2837" x="1209.29" y="255.53"/><text fill="#222222" font-family="'Times New Roman'" font-size="13" lengthAdjust="spacing" textLength="99.2837" x="1219.29" y="277.6667">JSON Transformer</text></g><!--entity OM--><g class="entity" data-qualified-name="NLP Layer.OM" data-source-line="61" id="ent0022"><rect fill="#FFFFFF" height="49.8975" rx="6" ry="6" style="stroke:#4F4F4F;stroke-width:1;" width="128.6973" x="1388.57" y="248.05"/><text fill="#222222" font-family="'Times New Roman'" font-size="13" lengthAdjust="spacing" textLength="108.6973" x="1398.57" y="270.1867">Ontology Population</text><text fill="#222222" font-family="'Times New Roman'" font-size="13" lengthAdjust="spacing" textLength="76.8955" x="1398.57" y="285.1354">and Validation</text></g><!--entity NLG--><g class="entity" data-qualified-name="NLP Layer.NLG" data-source-line="62" id="ent0023"><rect fill="#FFFFFF" height="34.9487" rx="6" ry="6" style="stroke:#4F4F4F;stroke-width:1;" width="120.7246" x="1577.27" y="255.53"/><text fill="#222222" font-family="'Times New Roman'" font-size="13" lengthAdjust="spacing" textLength="100.7246" x="1587.27" y="277.6667">Deterministic NLG</text></g><!--entity PR--><g class="entity" data-qualified-name="NLP Layer.PR" data-source-line="63" id="ent0024"><rect fill="#FFFFFF" height="34.9487" rx="6" ry="6" style="stroke:#4F4F4F;stroke-width:1;" width="112.4536" x="1757.99" y="255.53"/><text fill="#222222" font-family="'Times New Roman'" font-size="13" lengthAdjust="spacing" textLength="92.4536" x="1767.99" y="277.6667">Final PDF Report</text></g><!--entity CONV--><g class="entity" data-qualified-name="CONV" data-source-line="36" id="ent0008"><rect fill="#F3F3F3" height="34.9487" rx="6" ry="6" style="stroke:#4F4F4F;stroke-width:1;" width="182.8555" x="588.24" y="178.53"/><text fill="#222222" font-family="'Times New Roman'" font-size="13" lengthAdjust="spacing" textLength="162.8555" x="598.24" y="200.6667">CSV to .asl Beliefs Conversion</text></g><!--link SDI to IE--><g class="link" data-entity-1="ent0003" data-entity-2="ent0004" data-link-type="dependency" data-source-line="32" id="lnk6"><path d="M149.32,196 C168.23,196 183.25,196 202.84,196" fill="none" id="SDI-to-IE" style="stroke:#4A4A4A;stroke-width:1.3;"/><polygon fill="#4A4A4A" points="208.84,196,199.84,192,203.84,196,199.84,200,208.84,196" style="stroke:#4A4A4A;stroke-width:1.3;"/></g><!--link IE to CSV--><g class="link" data-entity-1="ent0004" data-entity-2="ent0005" data-link-type="dependency" data-source-line="33" id="lnk7"><path d="M352.58,196 C372.17,196 387.14,196 405.87,196" fill="none" id="IE-to-CSV" style="stroke:#4A4A4A;stroke-width:1.3;"/><polygon fill="#4A4A4A" points="411.87,196,402.87,192,406.87,196,402.87,200,411.87,196" style="stroke:#4A4A4A;stroke-width:1.3;"/></g><!--link CA to FA--><g class="link" data-entity-1="ent0010" data-entity-2="ent0012" data-link-type="dependency" data-source-line="51" id="lnk15"><path d="M946.04,190.18 C964.96,190.18 980.06,190.18 999.3,190.18" fill="none" id="CA-to-FA" style="stroke:#4A4A4A;stroke-width:1.3;"/><polygon fill="#4A4A4A" points="1005.3,190.18,996.3,186.18,1000.3,190.18,996.3,194.18,1005.3,190.18" style="stroke:#4A4A4A;stroke-width:1.3;"/></g><!--link FA to CA--><g class="link" data-entity-1="ent0012" data-entity-2="ent0010" data-link-type="dependency" data-source-line="53" id="lnk17"><path d="M1005.35,201.82 C986.05,201.82 970.88,201.82 951.91,201.82" fill="none" id="FA-to-CA" style="stroke:#4A4A4A;stroke-width:1.3;"/><polygon fill="#4A4A4A" points="945.91,201.82,954.91,205.82,950.91,201.82,954.91,197.82,945.91,201.82" style="stroke:#4A4A4A;stroke-width:1.3;"/></g><!--link CA to WA--><g class="link" data-entity-1="ent0010" data-entity-2="ent0013" data-link-type="dependency" data-source-line="52" id="lnk16"><path d="M869.45,178.45 C869.45,151.42 869.45,102.68 869.45,102.68 C869.45,102.68 947.47,102.68 1006.06,102.68" fill="none" id="CA-to-WA" style="stroke:#4A4A4A;stroke-width:1.3;"/><polygon fill="#4A4A4A" points="1012.06,102.68,1003.06,98.68,1007.06,102.68,1003.06,106.68,1012.06,102.68" style="stroke:#4A4A4A;stroke-width:1.3;"/></g><!--link WA to CA--><g class="link" data-entity-1="ent0013" data-entity-2="ent0010" data-link-type="dependency" data-source-line="54" id="lnk18"><path d="M1012.41,119.32 C966.12,119.32 907.45,119.32 907.45,119.32 C907.45,119.32 907.45,149.56 907.45,172.21" fill="none" id="WA-to-CA" style="stroke:#4A4A4A;stroke-width:1.3;"/><polygon fill="#4A4A4A" points="907.45,178.21,911.45,169.21,907.45,173.21,903.45,169.21,907.45,178.21" style="stroke:#4A4A4A;stroke-width:1.3;"/></g><!--link CA to EA--><g class="link" data-entity-1="ent0010" data-entity-2="ent0014" data-link-type="dependency" data-source-line="55" id="lnk19"><path d="M888.45,213.86 C888.45,236.61 888.45,273 888.45,273 C888.45,273 951.51,273 1003.85,273" fill="none" id="CA-to-EA" style="stroke:#4A4A4A;stroke-width:1.3;"/><polygon fill="#4A4A4A" points="1009.85,273,1000.85,269,1004.85,273,1000.85,277,1009.85,273" style="stroke:#4A4A4A;stroke-width:1.3;"/></g><!--link JT to OM--><g class="link" data-entity-1="ent0021" data-entity-2="ent0022" data-link-type="dependency" data-source-line="65" id="lnk25"><path d="M1328.92,273 C1347.9,273 1362.96,273 1382.25,273" fill="none" id="JT-to-OM" style="stroke:#4A4A4A;stroke-width:1.3;"/><polygon fill="#4A4A4A" points="1388.25,273,1379.25,269,1383.25,273,1379.25,277,1388.25,273" style="stroke:#4A4A4A;stroke-width:1.3;"/></g><!--link OM to NLG--><g class="link" data-entity-1="ent0022" data-entity-2="ent0023" data-link-type="dependency" data-source-line="66" id="lnk26"><path d="M1517.52,273 C1536.77,273 1551.79,273 1570.79,273" fill="none" id="OM-to-NLG" style="stroke:#4A4A4A;stroke-width:1.3;"/><polygon fill="#4A4A4A" points="1576.79,273,1567.79,269,1571.79,273,1567.79,277,1576.79,273" style="stroke:#4A4A4A;stroke-width:1.3;"/></g><!--link NLG to PR--><g class="link" data-entity-1="ent0023" data-entity-2="ent0024" data-link-type="dependency" data-source-line="67" id="lnk27"><path d="M1698.4,273 C1717.56,273 1732.63,273 1751.5,273" fill="none" id="NLG-to-PR" style="stroke:#4A4A4A;stroke-width:1.3;"/><polygon fill="#4A4A4A" points="1757.5,273,1748.5,269,1752.5,273,1748.5,277,1757.5,273" style="stroke:#4A4A4A;stroke-width:1.3;"/></g><!--link CSV to CONV--><g class="link" data-entity-1="ent0005" data-entity-2="ent0008" data-link-type="dependency" data-source-line="70" id="lnk28"><path d="M528.56,196 C546.96,196 561.75,196 581.9,196" fill="none" id="CSV-to-CONV" style="stroke:#4A4A4A;stroke-width:1.3;"/><polygon fill="#4A4A4A" points="587.9,196,578.9,192,582.9,196,578.9,200,587.9,196" style="stroke:#4A4A4A;stroke-width:1.3;"/></g><!--link CONV to CA--><g class="link" data-entity-1="ent0008" data-entity-2="ent0010" data-link-type="dependency" data-source-line="71" id="lnk29"><path d="M771.52,196 C791.64,196 806.4,196 824.73,196" fill="none" id="CONV-to-CA" style="stroke:#4A4A4A;stroke-width:1.3;"/><polygon fill="#4A4A4A" points="830.73,196,821.73,192,825.73,196,821.73,200,830.73,196" style="stroke:#4A4A4A;stroke-width:1.3;"/></g><!--link EA to JT--><g class="link" data-entity-1="ent0014" data-entity-2="ent0021" data-link-type="dependency" data-source-line="72" id="lnk30"><path d="M1125.21,273 C1151.49,273 1176.57,273 1203.09,273" fill="none" id="EA-to-JT" style="stroke:#4A4A4A;stroke-width:1.3;"/><polygon fill="#4A4A4A" points="1209.09,273,1200.09,269,1204.09,273,1200.09,277,1209.09,273" style="stroke:#4A4A4A;stroke-width:1.3;"/></g><?plantuml-src ZLHRRvim57xdLvobBvkqLkf5MhI7IOJ0bgebKOYIbxwuO8XLOoFRMPPE-UyxFgGjf1SDIt2ml-zSldFWarlpcaCZcL21VH2gOORLODUiq5kXAYYPjBnpakkwqOehbxcTv61uxfYgP1SYXU9krt3Gngrrvw1X-GEh-FlCq1YzNQn5_g2ujN1-Tjav7FEIRQHBj78fmvm72r5p2odVmbpNJ0tUncRYaSFvvUiq5i99JWZAvrxBuYCGkRdg89uBWBy1O0eRLKJQA6xW_08tHjeKt4HQQWCdLubVVXVTLgR5qab25vxu88Uz2xg2_UjqA5JFyxVGhpVvxqVR7sl-b6ReLn0utO3JA8bpkeP2-5A5La7mbCOWdi8Dst4pW9CunD96b9dafVD48wgrw_2W8zOWOuvBAHo7CNCC9ghPk3lrESEPmi6HfnTmprHXlmo0MSZ6apuR0qThj97DNUl-Jgs4B4gCzXtIyNBo5OfqDBzJYTIwy5kh2VcQnAzSJLGXSkQmzYXR4WYV0S8mBfoU_cWvavXiVxGFWeu7tF7bdZ4hOSIbu2KwqEetDnRpQlrDqoNgVkbNHx_RC7iHC4w6SKm2lYjyB_58umG8vVCEAvIj3HHwr7E0N-oHcGAoXkU2IM6TnKZ9C8cI8KNwg5czO8ast3gAWrtQ7fH61BDQuH-YxLCI7lDMs6RpH2jzAuuvAy_P7zKM_y5_4PQ6cRpK5bDjKKXje507crmahHrvUzMn3nWaxplAfpUpP-NnMnZ6qV-FxdKsJM5XcBAbDhLtWSbTB_gWgNBuDLKxcEbc8raxeJZHiCG-5FHElEbjd-VdsTH2OQz43kdDJqBXimzBiF4IPkC4vhp1FooXPdClqFM22YR7qrkoMphUwGrXA8MVMX89HpEW-Jn85hU2OK7_0000?></g></svg>