<?plantuml 1.2026.2?><svg xmlns="http://www.w3.org/2000/svg" xmlns:xlink="http://www.w3.org/1999/xlink" contentStyleType="text/css" data-diagram-type="SEQUENCE" height="2212px" preserveAspectRatio="none" style="width:703px;height:2212px;background:#FFFFFF;" version="1.1" viewBox="0 0 703 2212" width="703px" zoomAndPan="magnify"><defs/><g><g><title>WaterAgent</title><rect fill="#FFFFFF" height="2128.0488" style="stroke:#181818;stroke-width:1;" width="10" x="363.8569" y="67.7988"/></g><rect fill="none" height="313.4844" style="stroke:#000000;stroke-width:1.5;" width="288.5811" x="312.564" y="82.7988"/><rect fill="none" height="437.0371" style="stroke:#000000;stroke-width:1.5;" width="295.3018" x="312.564" y="410.2832"/><rect fill="none" height="383.0371" style="stroke:#000000;stroke-width:1.5;" width="324.1533" x="312.564" y="861.3203"/><rect fill="none" height="74.9316" style="stroke:#000000;stroke-width:1.5;" width="348.1919" x="312.564" y="1258.3574"/><rect fill="none" height="186.7949" style="stroke:#000000;stroke-width:1.5;" width="385.0195" x="312.564" y="1347.2891"/><rect fill="none" height="256.1055" style="stroke:#000000;stroke-width:1.5;" width="332.3184" x="312.564" y="1548.084"/><rect fill="none" height="280.1055" style="stroke:#000000;stroke-width:1.5;" width="584.165" x="10" y="1908.7422"/><rect fill="none" height="144.2422" style="stroke:#000000;stroke-width:1.5;" width="271.6011" x="312.564" y="1977.6738"/><g class="participant-lifeline" data-entity-uid="part1" data-qualified-name="Coord" id="part1-lifeline"><g><title>CoordinatorAgent</title><rect fill="#000000" fill-opacity="0.00000" height="2169.3594" width="8" x="83.7852" y="36.4883"/><line style="stroke:#777777;stroke-width:0.5;stroke-dasharray:5,5;" x1="87" x2="87" y1="36.4883" y2="2205.8477"/></g></g><g class="participant-lifeline" data-entity-uid="part2" data-qualified-name="Water" id="part2-lifeline"><g><title>WaterAgent</title><rect fill="#000000" fill-opacity="0.00000" height="2169.3594" width="8" x="364.8569" y="36.4883"/><line style="stroke:#777777;stroke-width:0.5;stroke-dasharray:5,5;" x1="368.564" x2="368.564" y1="36.4883" y2="2205.8477"/></g></g><g class="participant participant-head" data-entity-uid="part1" data-qualified-name="Coord" id="part1-head"><rect fill="#F7F7F7" height="30.4883" rx="2.5" ry="2.5" style="stroke:#555555;stroke-width:0.5;" width="135.5703" x="20" y="5"/><text fill="#000000" font-family="sans-serif" font-size="14" lengthAdjust="spacing" textLength="121.5703" x="27" y="25.5352">CoordinatorAgent</text></g><g class="participant participant-head" data-entity-uid="part2" data-qualified-name="Water" id="part2-head"><rect fill="#F7F7F7" height="30.4883" rx="2.5" ry="2.5" style="stroke:#555555;stroke-width:0.5;" width="92.5859" x="322.564" y="5"/><text fill="#000000" font-family="sans-serif" font-size="14" lengthAdjust="spacing" textLength="78.5859" x="329.564" y="25.5352">WaterAgent</text></g><g><title>WaterAgent</title><rect fill="#FFFFFF" height="2128.0488" style="stroke:#181818;stroke-width:1;" width="10" x="363.8569" y="67.7988"/></g><g class="message" data-entity-1="part1" data-entity-2="part2" id="msg1"><polygon fill="#444444" points="351.8569,63.7988,361.8569,67.7988,351.8569,71.7988" style="stroke:#444444;stroke-width:1;"/><line style="stroke:#444444;stroke-width:1;" x1="87.7852" x2="357.8569" y1="67.7988" y2="67.7988"/><text fill="#000000" font-family="sans-serif" font-size="13" lengthAdjust="spacing" textLength="220.562" x="115.54" y="63.0566">assess_event(E, coordinator_agent)</text></g><path d="M312.564,82.7988 L545.4863,82.7988 L545.4863,90.1094 L535.4863,100.1094 L312.564,100.1094 L312.564,82.7988" fill="#EEEEEE" style="stroke:#000000;stroke-width:1.5;"/><rect fill="none" height="313.4844" style="stroke:#000000;stroke-width:1.5;" width="288.5811" x="312.564" y="82.7988"/><text fill="#000000" font-family="sans-serif" font-size="13" font-weight="bold" lengthAdjust="spacing" textLength="187.9224" x="327.564" y="96.3672">Read EO and context beliefs</text><g class="message" data-entity-1="part2" data-entity-2="part2" id="msg2"><line style="stroke:#444444;stroke-width:1;" x1="373.8569" x2="415.8569" y1="121.4199" y2="121.4199"/><line style="stroke:#444444;stroke-width:1;" x1="415.8569" x2="415.8569" y1="121.4199" y2="134.4199"/><line style="stroke:#444444;stroke-width:1;" x1="374.8569" x2="415.8569" y1="134.4199" y2="134.4199"/><polygon fill="#444444" points="384.8569,130.4199,374.8569,134.4199,384.8569,138.4199" style="stroke:#444444;stroke-width:1;"/><text fill="#000000" font-family="sans-serif" font-size="13" lengthAdjust="spacing" textLength="155.4858" x="380.8569" y="116.6777">water_increase_pct(E, ...)</text></g><g class="message" data-entity-1="part2" data-entity-2="part2" id="msg3"><line style="stroke:#444444;stroke-width:1;" x1="373.8569" x2="415.8569" y1="163.7305" y2="163.7305"/><line style="stroke:#444444;stroke-width:1;" x1="415.8569" x2="415.8569" y1="163.7305" y2="176.7305"/><line style="stroke:#444444;stroke-width:1;" x1="374.8569" x2="415.8569" y1="176.7305" y2="176.7305"/><polygon fill="#444444" points="384.8569,172.7305,374.8569,176.7305,384.8569,180.7305" style="stroke:#444444;stroke-width:1;"/><text fill="#000000" font-family="sans-serif" font-size="13" lengthAdjust="spacing" textLength="186.1831" x="380.8569" y="158.9883">newly_flooded_area_pct(E, ...)</text></g><g class="message" data-entity-1="part2" data-entity-2="part2" id="msg4"><line style="stroke:#444444;stroke-width:1;" x1="373.8569" x2="415.8569" y1="206.041" y2="206.041"/><line style="stroke:#444444;stroke-width:1;" x1="415.8569" x2="415.8569" y1="206.041" y2="219.041"/><line style="stroke:#444444;stroke-width:1;" x1="374.8569" x2="415.8569" y1="219.041" y2="219.041"/><polygon fill="#444444" points="384.8569,215.041,374.8569,219.041,384.8569,223.041" style="stroke:#444444;stroke-width:1;"/><text fill="#000000" font-family="sans-serif" font-size="13" lengthAdjust="spacing" textLength="117.9141" x="380.8569" y="201.2988">ndwi_change(E, ...)</text></g><g class="message" data-entity-1="part2" data-entity-2="part2" id="msg5"><line style="stroke:#444444;stroke-width:1;" x1="373.8569" x2="415.8569" y1="248.3516" y2="248.3516"/><line style="stroke:#444444;stroke-width:1;" x1="415.8569" x2="415.8569" y1="248.3516" y2="261.3516"/><line style="stroke:#444444;stroke-width:1;" x1="374.8569" x2="415.8569" y1="261.3516" y2="261.3516"/><polygon fill="#444444" points="384.8569,257.3516,374.8569,261.3516,384.8569,265.3516" style="stroke:#444444;stroke-width:1;"/><text fill="#000000" font-family="sans-serif" font-size="13" lengthAdjust="spacing" textLength="177.563" x="380.8569" y="243.6094">water_area_before_pct(E, ...)</text></g><g class="message" data-entity-1="part2" data-entity-2="part2" id="msg6"><line style="stroke:#444444;stroke-width:1;" x1="373.8569" x2="415.8569" y1="290.6621" y2="290.6621"/><line style="stroke:#444444;stroke-width:1;" x1="415.8569" x2="415.8569" y1="290.6621" y2="303.6621"/><line style="stroke:#444444;stroke-width:1;" x1="374.8569" x2="415.8569" y1="303.6621" y2="303.6621"/><polygon fill="#444444" points="384.8569,299.6621,374.8569,303.6621,384.8569,307.6621" style="stroke:#444444;stroke-width:1;"/><text fill="#000000" font-family="sans-serif" font-size="13" lengthAdjust="spacing" textLength="169.8696" x="380.8569" y="285.9199">late_observation_flag(E, ...)</text></g><g class="message" data-entity-1="part2" data-entity-2="part2" id="msg7"><line style="stroke:#444444;stroke-width:1;" x1="373.8569" x2="415.8569" y1="332.9727" y2="332.9727"/><line style="stroke:#444444;stroke-width:1;" x1="415.8569" x2="415.8569" y1="332.9727" y2="345.9727"/><line style="stroke:#444444;stroke-width:1;" x1="374.8569" x2="415.8569" y1="345.9727" y2="345.9727"/><polygon fill="#444444" points="384.8569,341.9727,374.8569,345.9727,384.8569,349.9727" style="stroke:#444444;stroke-width:1;"/><text fill="#000000" font-family="sans-serif" font-size="13" lengthAdjust="spacing" textLength="198.2881" x="380.8569" y="328.2305">possible_underestimation(E, ...)</text></g><g class="message" data-entity-1="part2" data-entity-2="part2" id="msg8"><line style="stroke:#444444;stroke-width:1;" x1="373.8569" x2="415.8569" y1="375.2832" y2="375.2832"/><line style="stroke:#444444;stroke-width:1;" x1="415.8569" x2="415.8569" y1="375.2832" y2="388.2832"/><line style="stroke:#444444;stroke-width:1;" x1="374.8569" x2="415.8569" y1="388.2832" y2="388.2832"/><polygon fill="#444444" points="384.8569,384.2832,374.8569,388.2832,384.8569,392.2832" style="stroke:#444444;stroke-width:1;"/><text fill="#000000" font-family="sans-serif" font-size="13" lengthAdjust="spacing" textLength="162.0366" x="380.8569" y="370.541">timeline_confidence(E, ...)</text></g><path d="M312.564,410.2832 L556.7915,410.2832 L556.7915,417.5938 L546.7915,427.5938 L312.564,427.5938 L312.564,410.2832" fill="#EEEEEE" style="stroke:#000000;stroke-width:1.5;"/><rect fill="none" height="437.0371" style="stroke:#000000;stroke-width:1.5;" width="295.3018" x="312.564" y="410.2832"/><text fill="#000000" font-family="sans-serif" font-size="13" font-weight="bold" lengthAdjust="spacing" textLength="199.2275" x="327.564" y="423.8516">Derive indicator-level signals</text><g class="message" data-entity-1="part2" data-entity-2="part2" id="msg9"><line style="stroke:#444444;stroke-width:1;" x1="373.8569" x2="415.8569" y1="448.9043" y2="448.9043"/><line style="stroke:#444444;stroke-width:1;" x1="415.8569" x2="415.8569" y1="448.9043" y2="461.9043"/><line style="stroke:#444444;stroke-width:1;" x1="374.8569" x2="415.8569" y1="461.9043" y2="461.9043"/><polygon fill="#444444" points="384.8569,457.9043,374.8569,461.9043,384.8569,465.9043" style="stroke:#444444;stroke-width:1;"/><text fill="#000000" font-family="sans-serif" font-size="13" lengthAdjust="spacing" textLength="165.6992" x="380.8569" y="444.1621">water_expansion_signal(E)</text></g><g class="message" data-entity-1="part2" data-entity-2="part2" id="msg10"><line style="stroke:#444444;stroke-width:1;" x1="373.8569" x2="415.8569" y1="491.2148" y2="491.2148"/><line style="stroke:#444444;stroke-width:1;" x1="415.8569" x2="415.8569" y1="491.2148" y2="504.2148"/><line style="stroke:#444444;stroke-width:1;" x1="374.8569" x2="415.8569" y1="504.2148" y2="504.2148"/><polygon fill="#444444" points="384.8569,500.2148,374.8569,504.2148,384.8569,508.2148" style="stroke:#444444;stroke-width:1;"/><text fill="#000000" font-family="sans-serif" font-size="13" lengthAdjust="spacing" textLength="169.1714" x="380.8569" y="486.4727">strong_water_expansion(E)</text></g><g class="message" data-entity-1="part2" data-entity-2="part2" id="msg11"><line style="stroke:#444444;stroke-width:1;" x1="373.8569" x2="415.8569" y1="533.5254" y2="533.5254"/><line style="stroke:#444444;stroke-width:1;" x1="415.8569" x2="415.8569" y1="533.5254" y2="546.5254"/><line style="stroke:#444444;stroke-width:1;" x1="374.8569" x2="415.8569" y1="546.5254" y2="546.5254"/><polygon fill="#444444" points="384.8569,542.5254,374.8569,546.5254,384.8569,550.5254" style="stroke:#444444;stroke-width:1;"/><text fill="#000000" font-family="sans-serif" font-size="13" lengthAdjust="spacing" textLength="138.9375" x="380.8569" y="528.7832">flood_extent_signal(E)</text></g><g class="message" data-entity-1="part2" data-entity-2="part2" id="msg12"><line style="stroke:#444444;stroke-width:1;" x1="373.8569" x2="415.8569" y1="575.8359" y2="575.8359"/><line style="stroke:#444444;stroke-width:1;" x1="415.8569" x2="415.8569" y1="575.8359" y2="588.8359"/><line style="stroke:#444444;stroke-width:1;" x1="374.8569" x2="415.8569" y1="588.8359" y2="588.8359"/><polygon fill="#444444" points="384.8569,584.8359,374.8569,588.8359,384.8569,592.8359" style="stroke:#444444;stroke-width:1;"/><text fill="#000000" font-family="sans-serif" font-size="13" lengthAdjust="spacing" textLength="142.4097" x="380.8569" y="571.0938">strong_flood_extent(E)</text></g><g class="message" data-entity-1="part2" data-entity-2="part2" id="msg13"><line style="stroke:#444444;stroke-width:1;" x1="373.8569" x2="415.8569" y1="618.1465" y2="618.1465"/><line style="stroke:#444444;stroke-width:1;" x1="415.8569" x2="415.8569" y1="618.1465" y2="631.1465"/><line style="stroke:#444444;stroke-width:1;" x1="374.8569" x2="415.8569" y1="631.1465" y2="631.1465"/><polygon fill="#444444" points="384.8569,627.1465,374.8569,631.1465,384.8569,635.1465" style="stroke:#444444;stroke-width:1;"/><text fill="#000000" font-family="sans-serif" font-size="13" lengthAdjust="spacing" textLength="124.1157" x="380.8569" y="613.4043">ndwi_shift_signal(E)</text></g><g class="message" data-entity-1="part2" data-entity-2="part2" id="msg14"><line style="stroke:#444444;stroke-width:1;" x1="373.8569" x2="415.8569" y1="660.457" y2="660.457"/><line style="stroke:#444444;stroke-width:1;" x1="415.8569" x2="415.8569" y1="660.457" y2="673.457"/><line style="stroke:#444444;stroke-width:1;" x1="374.8569" x2="415.8569" y1="673.457" y2="673.457"/><polygon fill="#444444" points="384.8569,669.457,374.8569,673.457,384.8569,677.457" style="stroke:#444444;stroke-width:1;"/><text fill="#000000" font-family="sans-serif" font-size="13" lengthAdjust="spacing" textLength="127.5879" x="380.8569" y="655.7148">strong_ndwi_shift(E)</text></g><g class="message" data-entity-1="part2" data-entity-2="part2" id="msg15"><line style="stroke:#444444;stroke-width:1;" x1="373.8569" x2="415.8569" y1="702.7676" y2="702.7676"/><line style="stroke:#444444;stroke-width:1;" x1="415.8569" x2="415.8569" y1="702.7676" y2="715.7676"/><line style="stroke:#444444;stroke-width:1;" x1="374.8569" x2="415.8569" y1="715.7676" y2="715.7676"/><polygon fill="#444444" points="384.8569,711.7676,374.8569,715.7676,384.8569,719.7676" style="stroke:#444444;stroke-width:1;"/><text fill="#000000" font-family="sans-serif" font-size="13" lengthAdjust="spacing" textLength="139.8071" x="380.8569" y="698.0254">negative_ndwi_shift(E)</text></g><g class="message" data-entity-1="part2" data-entity-2="part2" id="msg16"><line style="stroke:#444444;stroke-width:1;" x1="373.8569" x2="415.8569" y1="745.0781" y2="745.0781"/><line style="stroke:#444444;stroke-width:1;" x1="415.8569" x2="415.8569" y1="745.0781" y2="758.0781"/><line style="stroke:#444444;stroke-width:1;" x1="374.8569" x2="415.8569" y1="758.0781" y2="758.0781"/><polygon fill="#444444" points="384.8569,754.0781,374.8569,758.0781,384.8569,762.0781" style="stroke:#444444;stroke-width:1;"/><text fill="#000000" font-family="sans-serif" font-size="13" lengthAdjust="spacing" textLength="178.7944" x="380.8569" y="740.3359">weak_surface_water_trace(E)</text></g><path d="M378,771.0781 L378,842.0781 L597,842.0781 L597,781.0781 L587,771.0781 L378,771.0781" fill="#FEFECE" style="stroke:#181818;stroke-width:0.5;"/><path d="M587,771.0781 L587,781.0781 L597,781.0781 L587,771.0781" fill="#FEFECE" style="stroke:#181818;stroke-width:0.5;"/><text fill="#000000" font-family="sans-serif" font-size="13" lengthAdjust="spacing" textLength="64.2573" x="384" y="788.6465">Examples:</text><text fill="#000000" font-family="sans-serif" font-size="13" lengthAdjust="spacing" textLength="168.1685" x="384" y="803.957">- water_increase_pct &gt;= 8</text><text fill="#000000" font-family="sans-serif" font-size="13" lengthAdjust="spacing" textLength="198.8657" x="384" y="819.2676">- newly_flooded_area_pct &gt;= 8</text><text fill="#000000" font-family="sans-serif" font-size="13" lengthAdjust="spacing" textLength="151.1504" x="384" y="834.5781">- ndwi_change &gt;= 0.08</text><path d="M312.564,861.3203 L602.3931,861.3203 L602.3931,868.6309 L592.3931,878.6309 L312.564,878.6309 L312.564,861.3203" fill="#EEEEEE" style="stroke:#000000;stroke-width:1.5;"/><rect fill="none" height="383.0371" style="stroke:#000000;stroke-width:1.5;" width="324.1533" x="312.564" y="861.3203"/><text fill="#000000" font-family="sans-serif" font-size="13" font-weight="bold" lengthAdjust="spacing" textLength="244.8291" x="327.564" y="874.8887">Build higher-level evidence patterns</text><g class="message" data-entity-1="part2" data-entity-2="part2" id="msg17"><line style="stroke:#444444;stroke-width:1;" x1="373.8569" x2="415.8569" y1="899.9414" y2="899.9414"/><line style="stroke:#444444;stroke-width:1;" x1="415.8569" x2="415.8569" y1="899.9414" y2="912.9414"/><line style="stroke:#444444;stroke-width:1;" x1="374.8569" x2="415.8569" y1="912.9414" y2="912.9414"/><polygon fill="#444444" points="384.8569,908.9414,374.8569,912.9414,384.8569,916.9414" style="stroke:#444444;stroke-width:1;"/><text fill="#000000" font-family="sans-serif" font-size="13" lengthAdjust="spacing" textLength="233.8604" x="380.8569" y="895.1992">strong_multisignal_flood_evidence(E)</text></g><g class="message" data-entity-1="part2" data-entity-2="part2" id="msg18"><line style="stroke:#444444;stroke-width:1;" x1="373.8569" x2="415.8569" y1="942.252" y2="942.252"/><line style="stroke:#444444;stroke-width:1;" x1="415.8569" x2="415.8569" y1="942.252" y2="955.252"/><line style="stroke:#444444;stroke-width:1;" x1="374.8569" x2="415.8569" y1="955.252" y2="955.252"/><polygon fill="#444444" points="384.8569,951.252,374.8569,955.252,384.8569,959.252" style="stroke:#444444;stroke-width:1;"/><text fill="#000000" font-family="sans-serif" font-size="13" lengthAdjust="spacing" textLength="171.7612" x="380.8569" y="937.5098">coherent_flood_evidence(E)</text></g><g class="message" data-entity-1="part2" data-entity-2="part2" id="msg19"><line style="stroke:#444444;stroke-width:1;" x1="373.8569" x2="415.8569" y1="984.5625" y2="984.5625"/><line style="stroke:#444444;stroke-width:1;" x1="415.8569" x2="415.8569" y1="984.5625" y2="997.5625"/><line style="stroke:#444444;stroke-width:1;" x1="374.8569" x2="415.8569" y1="997.5625" y2="997.5625"/><polygon fill="#444444" points="384.8569,993.5625,374.8569,997.5625,384.8569,1001.5625" style="stroke:#444444;stroke-width:1;"/><text fill="#000000" font-family="sans-serif" font-size="13" lengthAdjust="spacing" textLength="227.7158" x="380.8569" y="979.8203">extent_supported_flood_evidence(E)</text></g><g class="message" data-entity-1="part2" data-entity-2="part2" id="msg20"><line style="stroke:#444444;stroke-width:1;" x1="373.8569" x2="415.8569" y1="1026.873" y2="1026.873"/><line style="stroke:#444444;stroke-width:1;" x1="415.8569" x2="415.8569" y1="1026.873" y2="1039.873"/><line style="stroke:#444444;stroke-width:1;" x1="374.8569" x2="415.8569" y1="1039.873" y2="1039.873"/><polygon fill="#444444" points="384.8569,1035.873,374.8569,1039.873,384.8569,1043.873" style="stroke:#444444;stroke-width:1;"/><text fill="#000000" font-family="sans-serif" font-size="13" lengthAdjust="spacing" textLength="166.4482" x="380.8569" y="1022.1309">residual_flood_evidence(E)</text></g><g class="message" data-entity-1="part2" data-entity-2="part2" id="msg21"><line style="stroke:#444444;stroke-width:1;" x1="373.8569" x2="415.8569" y1="1069.1836" y2="1069.1836"/><line style="stroke:#444444;stroke-width:1;" x1="415.8569" x2="415.8569" y1="1069.1836" y2="1082.1836"/><line style="stroke:#444444;stroke-width:1;" x1="374.8569" x2="415.8569" y1="1082.1836" y2="1082.1836"/><polygon fill="#444444" points="384.8569,1078.1836,374.8569,1082.1836,384.8569,1086.1836" style="stroke:#444444;stroke-width:1;"/><text fill="#000000" font-family="sans-serif" font-size="13" lengthAdjust="spacing" textLength="148.3511" x="380.8569" y="1064.4414">weak_flood_evidence(E)</text></g><g class="message" data-entity-1="part2" data-entity-2="part2" id="msg22"><line style="stroke:#444444;stroke-width:1;" x1="373.8569" x2="415.8569" y1="1111.4941" y2="1111.4941"/><line style="stroke:#444444;stroke-width:1;" x1="415.8569" x2="415.8569" y1="1111.4941" y2="1124.4941"/><line style="stroke:#444444;stroke-width:1;" x1="374.8569" x2="415.8569" y1="1124.4941" y2="1124.4941"/><polygon fill="#444444" points="384.8569,1120.4941,374.8569,1124.4941,384.8569,1128.4941" style="stroke:#444444;stroke-width:1;"/><text fill="#000000" font-family="sans-serif" font-size="13" lengthAdjust="spacing" textLength="182.7744" x="380.8569" y="1106.752">conflicting_flood_evidence(E)</text></g><path d="M378,1137.4941 L378,1238.4941 L525,1238.4941 L525,1147.4941 L515,1137.4941 L378,1137.4941" fill="#FEFECE" style="stroke:#181818;stroke-width:0.5;"/><path d="M515,1137.4941 L515,1147.4941 L525,1147.4941 L515,1137.4941" fill="#FEFECE" style="stroke:#181818;stroke-width:0.5;"/><text fill="#000000" font-family="sans-serif" font-size="13" lengthAdjust="spacing" textLength="64.2573" x="384" y="1155.0625">Examples:</text><text fill="#000000" font-family="sans-serif" font-size="13" lengthAdjust="spacing" textLength="126.7944" x="384" y="1170.373">- strong multisignal</text><text fill="#000000" font-family="sans-serif" font-size="13" lengthAdjust="spacing" textLength="67.082" x="384" y="1185.6836">- coherent</text><text fill="#000000" font-family="sans-serif" font-size="13" lengthAdjust="spacing" textLength="61.769" x="384" y="1200.9941">- residual</text><text fill="#000000" font-family="sans-serif" font-size="13" lengthAdjust="spacing" textLength="43.6719" x="384" y="1216.3047">- weak</text><text fill="#000000" font-family="sans-serif" font-size="13" lengthAdjust="spacing" textLength="78.0952" x="384" y="1231.6152">- conflicting</text><path d="M312.564,1258.3574 L519.8418,1258.3574 L519.8418,1265.668 L509.8418,1275.668 L312.564,1275.668 L312.564,1258.3574" fill="#EEEEEE" style="stroke:#000000;stroke-width:1.5;"/><rect fill="none" height="74.9316" style="stroke:#000000;stroke-width:1.5;" width="348.1919" x="312.564" y="1258.3574"/><text fill="#000000" font-family="sans-serif" font-size="13" font-weight="bold" lengthAdjust="spacing" textLength="162.2778" x="327.564" y="1271.9258">Determine support level</text><g class="message" data-entity-1="part2" data-entity-2="part2" id="msg23"><line style="stroke:#444444;stroke-width:1;" x1="373.8569" x2="415.8569" y1="1312.2891" y2="1312.2891"/><line style="stroke:#444444;stroke-width:1;" x1="415.8569" x2="415.8569" y1="1312.2891" y2="1325.2891"/><line style="stroke:#444444;stroke-width:1;" x1="374.8569" x2="415.8569" y1="1325.2891" y2="1325.2891"/><polygon fill="#444444" points="384.8569,1321.2891,374.8569,1325.2891,384.8569,1329.2891" style="stroke:#444444;stroke-width:1;"/><text fill="#000000" font-family="sans-serif" font-size="13" lengthAdjust="spacing" textLength="257.8989" x="380.8569" y="1292.2363">flood_support_level(E, strong/moderate/</text><text fill="#000000" font-family="sans-serif" font-size="13" lengthAdjust="spacing" textLength="186.7861" x="416.4133" y="1307.5469">weak/conflicting/insufficient)</text></g><path d="M312.564,1347.2891 L488.5542,1347.2891 L488.5542,1354.5996 L478.5542,1364.5996 L312.564,1364.5996 L312.564,1347.2891" fill="#EEEEEE" style="stroke:#000000;stroke-width:1.5;"/><rect fill="none" height="186.7949" style="stroke:#000000;stroke-width:1.5;" width="385.0195" x="312.564" y="1347.2891"/><text fill="#000000" font-family="sans-serif" font-size="13" font-weight="bold" lengthAdjust="spacing" textLength="130.9902" x="327.564" y="1360.8574">Select severity path</text><g class="message" data-entity-1="part2" data-entity-2="part2" id="msg24"><line style="stroke:#444444;stroke-width:1;" x1="373.8569" x2="415.8569" y1="1416.5313" y2="1416.5313"/><line style="stroke:#444444;stroke-width:1;" x1="415.8569" x2="415.8569" y1="1416.5313" y2="1429.5313"/><line style="stroke:#444444;stroke-width:1;" x1="374.8569" x2="415.8569" y1="1429.5313" y2="1429.5313"/><polygon fill="#444444" points="384.8569,1425.5313,374.8569,1429.5313,384.8569,1433.5313" style="stroke:#444444;stroke-width:1;"/><text fill="#000000" font-family="sans-serif" font-size="13" lengthAdjust="spacing" textLength="143.2349" x="384.3101" y="1381.168">flood_severity_path(...,</text><text fill="#000000" font-family="sans-serif" font-size="13" lengthAdjust="spacing" textLength="130.4063" x="390.7244" y="1396.4785">Severity, ClaimLabel,</text><text fill="#000000" font-family="sans-serif" font-size="13" lengthAdjust="spacing" textLength="150.1411" x="380.8569" y="1411.7891">EvidenceList, RuleLabel)</text></g><path d="M378,1442.5313 L378,1528.5313 L687,1528.5313 L687,1452.5313 L677,1442.5313 L378,1442.5313" fill="#FEFECE" style="stroke:#181818;stroke-width:0.5;"/><path d="M677,1442.5313 L677,1452.5313 L687,1452.5313 L677,1442.5313" fill="#FEFECE" style="stroke:#181818;stroke-width:0.5;"/><text fill="#000000" font-family="sans-serif" font-size="13" lengthAdjust="spacing" textLength="64.2573" x="384" y="1460.0996">Examples:</text><text fill="#000000" font-family="sans-serif" font-size="13" lengthAdjust="spacing" textLength="254.7886" x="384" y="1475.4102">- severe -&gt; strong_multisignal_flooding</text><text fill="#000000" font-family="sans-serif" font-size="13" lengthAdjust="spacing" textLength="212.437" x="384" y="1490.7207">- moderate -&gt; coherent_flooding</text><text fill="#000000" font-family="sans-serif" font-size="13" lengthAdjust="spacing" textLength="198.8721" x="384" y="1506.0313">- mild -&gt; residual_flood_signal</text><text fill="#000000" font-family="sans-serif" font-size="13" lengthAdjust="spacing" textLength="288.5835" x="384" y="1521.3418">- undetermined -&gt; inconclusive_water_signal</text><path d="M312.564,1548.084 L639.8823,1548.084 L639.8823,1555.3945 L629.8823,1565.3945 L312.564,1565.3945 L312.564,1548.084" fill="#EEEEEE" style="stroke:#000000;stroke-width:1.5;"/><rect fill="none" height="256.1055" style="stroke:#000000;stroke-width:1.5;" width="332.3184" x="312.564" y="1548.084"/><text fill="#000000" font-family="sans-serif" font-size="13" font-weight="bold" lengthAdjust="spacing" textLength="282.3184" x="327.564" y="1561.6523">Determine status, confidence, and caveats</text><g class="message" data-entity-1="part2" data-entity-2="part2" id="msg25"><line style="stroke:#444444;stroke-width:1;" x1="373.8569" x2="415.8569" y1="1586.7051" y2="1586.7051"/><line style="stroke:#444444;stroke-width:1;" x1="415.8569" x2="415.8569" y1="1586.7051" y2="1599.7051"/><line style="stroke:#444444;stroke-width:1;" x1="374.8569" x2="415.8569" y1="1599.7051" y2="1599.7051"/><polygon fill="#444444" points="384.8569,1595.7051,374.8569,1599.7051,384.8569,1603.7051" style="stroke:#444444;stroke-width:1;"/><text fill="#000000" font-family="sans-serif" font-size="13" lengthAdjust="spacing" textLength="172.3452" x="380.8569" y="1581.9629">flood_conclusion_status(...)</text></g><g class="message" data-entity-1="part2" data-entity-2="part2" id="msg26"><line style="stroke:#444444;stroke-width:1;" x1="373.8569" x2="415.8569" y1="1629.0156" y2="1629.0156"/><line style="stroke:#444444;stroke-width:1;" x1="415.8569" x2="415.8569" y1="1629.0156" y2="1642.0156"/><line style="stroke:#444444;stroke-width:1;" x1="374.8569" x2="415.8569" y1="1642.0156" y2="1642.0156"/><polygon fill="#444444" points="384.8569,1638.0156,374.8569,1642.0156,384.8569,1646.0156" style="stroke:#444444;stroke-width:1;"/><text fill="#000000" font-family="sans-serif" font-size="13" lengthAdjust="spacing" textLength="128.6289" x="380.8569" y="1624.2734">flood_confidence(...)</text></g><g class="message" data-entity-1="part2" data-entity-2="part2" id="msg27"><line style="stroke:#444444;stroke-width:1;" x1="373.8569" x2="415.8569" y1="1686.6367" y2="1686.6367"/><line style="stroke:#444444;stroke-width:1;" x1="415.8569" x2="415.8569" y1="1686.6367" y2="1699.6367"/><line style="stroke:#444444;stroke-width:1;" x1="374.8569" x2="415.8569" y1="1699.6367" y2="1699.6367"/><polygon fill="#444444" points="384.8569,1695.6367,374.8569,1699.6367,384.8569,1703.6367" style="stroke:#444444;stroke-width:1;"/><text fill="#000000" font-family="sans-serif" font-size="13" lengthAdjust="spacing" textLength="147.2466" x="390.5815" y="1666.584">flood_caveat_profile(...,</text><text fill="#000000" font-family="sans-serif" font-size="13" lengthAdjust="spacing" textLength="166.6958" x="380.8569" y="1681.8945">PrimaryCaveat, CaveatList)</text></g><path d="M378,1712.6367 L378,1798.6367 L595,1798.6367 L595,1722.6367 L585,1712.6367 L378,1712.6367" fill="#FEFECE" style="stroke:#181818;stroke-width:0.5;"/><path d="M585,1712.6367 L585,1722.6367 L595,1722.6367 L585,1712.6367" fill="#FEFECE" style="stroke:#181818;stroke-width:0.5;"/><text fill="#000000" font-family="sans-serif" font-size="13" lengthAdjust="spacing" textLength="131.7266" x="384" y="1730.2051">Examples of caveats:</text><text fill="#000000" font-family="sans-serif" font-size="13" lengthAdjust="spacing" textLength="196.7329" x="384" y="1745.5156">- residual_observation_window</text><text fill="#000000" font-family="sans-serif" font-size="13" lengthAdjust="spacing" textLength="128.7876" x="384" y="1760.8262">- weak_water_signal</text><text fill="#000000" font-family="sans-serif" font-size="13" lengthAdjust="spacing" textLength="155.562" x="384" y="1776.1367">- coastal_baseline_water</text><text fill="#000000" font-family="sans-serif" font-size="13" lengthAdjust="spacing" textLength="173.4688" x="384" y="1791.4473">- insufficient_flood_pattern</text><g class="message" data-entity-1="part2" data-entity-2="part1" id="msg28"><polygon fill="#444444" points="98.7852,1889.7422,88.7852,1893.7422,98.7852,1897.7422" style="stroke:#444444;stroke-width:1;"/><line style="stroke:#444444;stroke-width:1;stroke-dasharray:2,2;" x1="92.7852" x2="362.8569" y1="1893.7422" y2="1893.7422"/><text fill="#000000" font-family="sans-serif" font-size="13" lengthAdjust="spacing" textLength="236.5962" x="107.5229" y="1827.7578">hazard_assessment(E, flood, Severity,</text><text fill="#000000" font-family="sans-serif" font-size="13" lengthAdjust="spacing" textLength="202.4141" x="124.614" y="1843.0684">SupportLevel, ConclusionStatus,</text><text fill="#000000" font-family="sans-serif" font-size="13" lengthAdjust="spacing" textLength="184.3423" x="133.6499" y="1858.3789">ConfidenceLevel, ClaimLabel,</text><text fill="#000000" font-family="sans-serif" font-size="13" lengthAdjust="spacing" textLength="179.3213" x="136.1604" y="1873.6895">PrimaryCaveat, EvidenceList,</text><text fill="#000000" font-family="sans-serif" font-size="13" lengthAdjust="spacing" textLength="137.4014" x="157.1204" y="1889">CaveatList, RuleLabel)</text></g><path d="M10,1908.7422 L72.1387,1908.7422 L72.1387,1916.0527 L62.1387,1926.0527 L10,1926.0527 L10,1908.7422" fill="#EEEEEE" style="stroke:#000000;stroke-width:1.5;"/><rect fill="none" height="280.1055" style="stroke:#000000;stroke-width:1.5;" width="584.165" x="10" y="1908.7422"/><text fill="#000000" font-family="sans-serif" font-size="13" font-weight="bold" lengthAdjust="spacing" textLength="17.1387" x="25" y="1922.3105">alt</text><text fill="#000000" font-family="sans-serif" font-size="11" font-weight="bold" lengthAdjust="spacing" textLength="135.8135" x="87.1387" y="1921.377">[clarification requested]</text><g class="message" data-entity-1="part1" data-entity-2="part2" id="msg29"><polygon fill="#444444" points="351.8569,1958.6738,361.8569,1962.6738,351.8569,1966.6738" style="stroke:#444444;stroke-width:1;"/><line style="stroke:#444444;stroke-width:1;" x1="87.7852" x2="357.8569" y1="1962.6738" y2="1962.6738"/><text fill="#000000" font-family="sans-serif" font-size="13" lengthAdjust="spacing" textLength="210.7168" x="120.4626" y="1942.6211">clarify_assessment(E, ClaimLabel,</text><text fill="#000000" font-family="sans-serif" font-size="13" lengthAdjust="spacing" textLength="217.5913" x="117.0254" y="1957.9316">PrimaryCaveat, coordinator_agent)</text></g><path d="M312.564,1977.6738 L510.333,1977.6738 L510.333,1984.9844 L500.333,1994.9844 L312.564,1994.9844 L312.564,1977.6738" fill="#EEEEEE" style="stroke:#000000;stroke-width:1.5;"/><rect fill="none" height="144.2422" style="stroke:#000000;stroke-width:1.5;" width="271.6011" x="312.564" y="1977.6738"/><text fill="#000000" font-family="sans-serif" font-size="13" font-weight="bold" lengthAdjust="spacing" textLength="152.769" x="327.564" y="1991.2422">Clarification reasoning</text><g class="message" data-entity-1="part2" data-entity-2="part2" id="msg30"><line style="stroke:#444444;stroke-width:1;" x1="373.8569" x2="415.8569" y1="2016.2949" y2="2016.2949"/><line style="stroke:#444444;stroke-width:1;" x1="415.8569" x2="415.8569" y1="2016.2949" y2="2029.2949"/><line style="stroke:#444444;stroke-width:1;" x1="374.8569" x2="415.8569" y1="2029.2949" y2="2029.2949"/><polygon fill="#444444" points="384.8569,2025.2949,374.8569,2029.2949,384.8569,2033.2949" style="stroke:#444444;stroke-width:1;"/><text fill="#000000" font-family="sans-serif" font-size="13" lengthAdjust="spacing" textLength="175.2969" x="380.8569" y="2011.5527">flood_primary_limitation(...)</text></g><g class="message" data-entity-1="part2" data-entity-2="part2" id="msg31"><line style="stroke:#444444;stroke-width:1;" x1="373.8569" x2="415.8569" y1="2058.6055" y2="2058.6055"/><line style="stroke:#444444;stroke-width:1;" x1="415.8569" x2="415.8569" y1="2058.6055" y2="2071.6055"/><line style="stroke:#444444;stroke-width:1;" x1="374.8569" x2="415.8569" y1="2071.6055" y2="2071.6055"/><polygon fill="#444444" points="384.8569,2067.6055,374.8569,2071.6055,384.8569,2075.6055" style="stroke:#444444;stroke-width:1;"/><text fill="#000000" font-family="sans-serif" font-size="13" lengthAdjust="spacing" textLength="181.3081" x="380.8569" y="2053.8633">flood_strongest_evidence(...)</text></g><g class="message" data-entity-1="part2" data-entity-2="part2" id="msg32"><line style="stroke:#444444;stroke-width:1;" x1="373.8569" x2="415.8569" y1="2100.916" y2="2100.916"/><line style="stroke:#444444;stroke-width:1;" x1="415.8569" x2="415.8569" y1="2100.916" y2="2113.916"/><line style="stroke:#444444;stroke-width:1;" x1="374.8569" x2="415.8569" y1="2113.916" y2="2113.916"/><polygon fill="#444444" points="384.8569,2109.916,374.8569,2113.916,384.8569,2117.916" style="stroke:#444444;stroke-width:1;"/><text fill="#000000" font-family="sans-serif" font-size="13" lengthAdjust="spacing" textLength="166.1753" x="380.8569" y="2096.1738">flood_alternative_claim(...)</text></g><g class="message" data-entity-1="part2" data-entity-2="part1" id="msg33"><polygon fill="#444444" points="98.7852,2176.8477,88.7852,2180.8477,98.7852,2184.8477" style="stroke:#444444;stroke-width:1;"/><line style="stroke:#444444;stroke-width:1;stroke-dasharray:2,2;" x1="92.7852" x2="362.8569" y1="2180.8477" y2="2180.8477"/><text fill="#000000" font-family="sans-serif" font-size="13" lengthAdjust="spacing" textLength="208.8315" x="121.4053" y="2145.4844">clarification_result(E, ClaimLabel,</text><text fill="#000000" font-family="sans-serif" font-size="13" lengthAdjust="spacing" textLength="238.3291" x="106.6565" y="2160.7949">PrimaryLimitation, StrongestEvidence,</text><text fill="#000000" font-family="sans-serif" font-size="13" lengthAdjust="spacing" textLength="252.0718" x="99.7852" y="2176.1055">AlternativeClaim, clarification_provided)</text></g><?plantuml-src ZLPDRziw4BphLn3j9G6Sf8SMBGAqGEAw9x_NeZdq4a2WfPLDX29LahBZz-lVaA8-R4js52IEnI5tTsQuf7qHgkA6byowlIJyDI9pTIaJsu_GtvfKHl-GjNnD3rAi5Sj8EJ83b25RQMLRr2D9lNimHk-OCpKDWFzgHuyyUraRNQjyhgKsxFsFnO_5V350_UB6YKnKNBbJy6V_Cm7M9YSJWP_2Cm0-nLAMei2leWFqv_2SGvya4fx1Z51m7FmOdYIf-kJOkxb6HA6uq-PX3GhVCMvPU7c8-yF1Rey8NvCa0DdDj-RxFKOis4vf2zpLOiQoVlMK-ydN2S-Ss0BTBk7phzXluZbR_6HSvPW49LyTMv4KLDWa00T1TluZ5Iepn2sbLHP2tTxUNfz05UtaFYsarZdbASU4y_1y9z9imzMQ9Z5DzB3KYWfjpYSWyP7gbIM3ceLMo8Ml9z6LjbQi9ALGbE1V9yemQt820219KGhE2f5xRtHOKddBxdSoOajCg5naNeiR2OKaizWtN4uHJAzGtlgS6zpLuZG-TgTMw_HemXWoQ028WmakBpX4Zy62K7OZYZUirMD7Lw8rADxI1TYE-4jgQrFmZ6Avpd3FzdMYq3-O4UkDOxg8jbwyyhAIPE-Jcn6_iczVsHUCZDkp6-tTw5zzkFtmnOlAVBoXke-ra3dR805gbQLjOmPMSOVWoawHKzRIYOR2blHjwwDJ5ZAD45x0oz1MwRggj76exl8K65xazPiI2NAy9LzLI1mVehVK07r9juOYDg08BriAy6-RhvSO-OJ1BjweKjy9CKhiLnPvOK6kYSqICMd0-6tT97HNmYq6mBjdvUFU3QBU2MNhea3N3hrs4Fg99C5Q5ciPuVRU69kfk16JUimLUidiMJt5TpCsbroKIuxcZDUBIETIM3TZlsj9OUGDtFhro8UUCgBdy8QrjNhaeVlYkBS-newyqydb6sdaFE2m2xNAP6tzbcysPiHUqCjnLziPw_lih3ch-9QuinDCjh5y3mqBN8rsyGxSjl1pg10mhOmkXAIepY-3WyBivs4C4eLFhybv8VoRMC3zmCy7vzKEXuRUHOiVCkRzpb6NJ5VeQ-4O2kCO6DemIX8xqH7FiKXK6QuIzsp3_-C6lJ1S9CfuZGWhp5XdGlYnsHjBlpLGSCVpKwFJivftRBQOeM-F23kmCUPs_1ruEk7IiKno8mf_Z28QACE5pAAz9GpFyMsemUwFYZcNoCXzoI_Sk75-59fRhVmky8XnirJDwgaKfN3DJI9OQtf6injHKjyfBym0AP2rEKCpNre_mIiycDYBV41Y2jzXyqzHi-noXm7Qx5h107leuuVfiwFLiLCyE8_TCAV32-Z_?></g></svg>